<?xml version="1.0" encoding="UTF-8" standalone="no"?>
<svg
   xmlns:dc="http://purl.org/dc/elements/1.1/"
   xmlns:cc="http://creativecommons.org/ns#"
   xmlns:rdf="http://www.w3.org/1999/02/22-rdf-syntax-ns#"
   xmlns:svg="http://www.w3.org/2000/svg"
   xmlns="http://www.w3.org/2000/svg"
   xmlns:sodipodi="http://sodipodi.sourceforge.net/DTD/sodipodi-0.dtd"
   xmlns:inkscape="http://www.inkscape.org/namespaces/inkscape"
   version="1.0"
   width="192.000000pt"
   height="115.200000pt"
   viewBox="0 0 192.000000 115.200000"
   preserveAspectRatio="xMidYMid meet"
   id="svg8"
   sodipodi:docname="5d8d35c0ded3e.svg"
   inkscape:version="0.92.4 (5da689c313, 2019-01-14)">
  <defs
     id="defs12" />
  <sodipodi:namedview
     pagecolor="#ffffff"
     bordercolor="#666666"
     borderopacity="1"
     objecttolerance="10"
     gridtolerance="10"
     guidetolerance="10"
     inkscape:pageopacity="0"
     inkscape:pageshadow="2"
     inkscape:window-width="1600"
     inkscape:window-height="837"
     id="namedview10"
     showgrid="false"
     inkscape:zoom="0.54322007"
     inkscape:cx="3.0622201"
     inkscape:cy="96.670479"
     inkscape:window-x="-8"
     inkscape:window-y="-8"
     inkscape:window-maximized="1"
     inkscape:current-layer="svg8" />
  <metadata
     id="metadata2">
Created by potrace 1.13, written by Peter Selinger 2001-2015
<rdf:RDF>
  <cc:Work
     rdf:about="">
    <dc:format>image/svg+xml</dc:format>
    <dc:type
       rdf:resource="http://purl.org/dc/dcmitype/StillImage" />
  </cc:Work>
</rdf:RDF>
</metadata>
  <g
     transform="matrix(0.18241276,0,0,-0.20503122,-119.47837,194.86888)"
     id="g6"
     style="fill:#000000;stroke:none">
    <path
       d="M 690,645 V 360 h 510 510 V 645 930 H 1327 690 Z m 85,199 c -42,-47 -75,-89 -73,-94 2,-5 36,-47 77,-94 72,-84 74,-86 118,-86 52,0 52,1 -25,86 l -53,59 318,3 c 175,2 342,0 371,-3 94,-11 141,-80 108,-159 -26,-62 -55,-70 -273,-74 l -193,-4 v -29 -29 h 198 c 191,0 200,1 248,25 71,35 98,85 92,171 -5,76 -25,109 -88,142 -44,22 -50,22 -413,22 -306,0 -367,2 -360,14 4,7 33,41 63,75 l 55,61 h 382 383 V 645 360 H 1200 690 v 285 285 h 81 80 z"
       id="path4"
       inkscape:connector-curvature="0"
       sodipodi:nodetypes="ccccccccccscscccccccccscccscccccccccccccc" />
  </g>
</svg>
